<svg xmlns="http://www.w3.org/2000/svg" xmlns:xlink="http://www.w3.org/1999/xlink" width="34.16" height="27.063" viewBox="0 0 34.16 27.063">
  <defs>
    <linearGradient id="linear-gradient" y1="0.5" x2="1" y2="0.5" gradientUnits="objectBoundingBox">
      <stop offset="0" stop-color="#f99400"/>
      <stop offset="1" stop-color="#d14c1f"/>
    </linearGradient>
  </defs>
  <path id="Контур_35" data-name="Контур 35" d="M905.564,386.795a2.348,2.348,0,0,1,.585-.742c.852-.784,1.692-1.58,2.54-2.37a1,1,0,0,1,1.61.068l6.292,6.671a.994.994,0,0,0,1.669.01q7.342-7.607,14.682-15.214a1.2,1.2,0,0,1,.68-.426.481.481,0,0,1,.319,0,1.007,1.007,0,0,1,.592.331c.919.964,1.842,1.923,2.759,2.888a1.086,1.086,0,0,1-.007,1.611q-9.536,9.909-19.075,19.816a.979.979,0,0,1-1.563,0c-3.662-3.776-7.2-7.681-10.757-11.56-.137-.149-.2-.34-.326-.5Z" transform="translate(-904.564 -373.762)" stroke="#fff" stroke-linejoin="round" stroke-width="2" fill="url(#linear-gradient)"/>
</svg>
