<?xml version="1.0" encoding="UTF-8"?>
<svg id="Layer_1" data-name="Layer 1" xmlns="http://www.w3.org/2000/svg" viewBox="0 0 469.41 471.75">
  <defs>
    <style>
      .cls-1 {
        fill: #d48a4e;
      }

      .cls-1, .cls-2, .cls-3, .cls-4 {
        stroke-width: 0px;
      }

      .cls-2 {
        fill: #c27845;
      }

      .cls-3 {
        fill: #58351d;
      }

      .cls-4 {
        fill: #a16337;
      }
    </style>
  </defs>
  <g id="Group_39" data-name="Group 39">
    <path id="Path_86" data-name="Path 86" class="cls-1" d="M425.1,407.55l-228.13,64.2,44.31-277.65,228.13-64.2-44.31,277.65Z"/>
    <path id="Path_87" data-name="Path 87" class="cls-2" d="M196.97,471.75L0,340.73,44.31,63.09l196.97,131.02-44.31,277.64Z"/>
    <path id="Path_88" data-name="Path 88" class="cls-4" d="M469.4,129.91l-228.12,64.2L44.31,63.09,272.26,0l197.15,129.91Z"/>
    <path id="Path_89" data-name="Path 89" class="cls-3" d="M409.32,391.66l-51.77,14.66,2.83-17.73,51.77-14.66-2.83,17.73Z"/>
    <path id="Path_90" data-name="Path 90" class="cls-3" d="M413.57,365.07l-51.77,14.66,2.83-17.73,51.77-14.66-2.83,17.73Z"/>
    <path id="Path_91" data-name="Path 91" class="cls-3" d="M147.19,34.17l196.97,131.02-5.73,35.9,43.43-12.22,5.73-35.9L191.22,21.98l-44.02,12.19Z"/>
  </g>
</svg>