<?xml version="1.0" encoding="UTF-8"?>
<svg id="Layer_1" data-name="Layer 1" xmlns="http://www.w3.org/2000/svg" viewBox="0 0 503.79 247.6">
  <defs>
    <style>
      .cls-1 {
        fill: #1e2e30;
      }

      .cls-1, .cls-2, .cls-3, .cls-4, .cls-5, .cls-6, .cls-7, .cls-8 {
        stroke-width: 0px;
      }

      .cls-2 {
        fill: #172527;
      }

      .cls-3 {
        fill: #142125;
      }

      .cls-4 {
        fill: #9d0311;
      }

      .cls-5 {
        fill: #757474;
      }

      .cls-6 {
        fill: #a3a3a3;
      }

      .cls-7 {
        fill: #5d5c5c;
      }

      .cls-8 {
        fill: #009695;
      }
    </style>
  </defs>
  <g id="Group_37" data-name="Group 37">
    <path id="Path_62" data-name="Path 62" class="cls-8" d="M196.58,157.99c-1.54-.28-2.99-.91-4.24-1.86-4.01-2.48-7.62-5.51-11.39-8.3-2.37-1.75-5.27-2.75-7.17-5.15,2.45,1.28,4.82,2.71,7.1,4.27,4.98,4.03,10.23,7.72,15.71,11.05Z"/>
    <path id="Path_63" data-name="Path 63" class="cls-7" d="M116.02,126.02l.95,4.87c-.15.02-.33.03-.47.05-1.38-1.23-1.82-3.21-1.08-4.92.02-.02.04-.04.06-.06.03.05.07.11.1.16.15-.04.3-.08.45-.11Z"/>
    <path id="Path_64" data-name="Path 64" class="cls-7" d="M114.03,115.78l1.91,9.81c-.16.11-.32.24-.47.38-1.91-2.99-2.6-6.6-1.91-10.08.15-.04.31-.07.47-.11Z"/>
    <path id="Path_65" data-name="Path 65" class="cls-6" d="M196.58,157.99c-9.78,4.89-18.46,11.73-25.5,20.1-13.92,16.28-20.39,35.42-21.4,56.58-.01.11-.01.23-.02.35-3.06,2.06-6.82,2.79-10.43,2.03,0-.12-.01-.23-.02-.34-.06-1.01-.1-2.03-.18-3.04-1.26-14.7-.31-29.5,2.82-43.92,3.37-14.55,9.41-27.7,20.31-38.3,3.52-3.43,7.76-5.83,11.61-8.76,2.45,1.28,4.82,2.71,7.1,4.27,4.98,4.03,10.23,7.72,15.71,11.05Z"/>
    <path id="Path_66" data-name="Path 66" class="cls-1" d="M96.19,86.55c21.82-2.95,43.64-5.89,65.47-8.81,1.5.05,2.78-1.07,2.93-2.57.68-3.13,1.64-6.2,2.61-9.74l-71.71,17.6c-.81,1.02-.63,2.51.39,3.31.1.08.2.14.31.2Z"/>
    <path id="Path_67" data-name="Path 67" class="cls-1" d="M89.58,84.15l-72.28,10.41c2.36,3.13,4.62,6.09,6.82,9.06.69.93,1.5.6,2.35.38,13.73-3.49,27.46-6.98,41.2-10.46,7.54-1.92,15.08-3.87,22.62-5.8.82-1.05.64-2.57-.41-3.39-.09-.07-.19-.14-.3-.2Z"/>
    <path id="Path_68" data-name="Path 68" class="cls-7" d="M89.58,84.15c.23,1.2.47,2.39.71,3.59.98,4.78,1.96,9.55,2.94,14.33,1.79-.69,3.66-1.17,5.57-1.41-.87-4.7-1.74-9.4-2.61-14.1-.23-1.17-.46-2.35-.69-3.52-.31-1.36-.61-2.71-.92-4.07-1.93-.45-3.97-.08-5.61,1.03.21,1.39.41,2.77.62,4.16Z"/>
    <path id="Path_69" data-name="Path 69" class="cls-2" d="M88.95,80c1.92-.03,3.81-.38,5.61-1.03,1.91-1.12,4.62-1.99,3.89-4.79s-3.56-2.57-5.9-2.64c-2.28-.03-4.51.65-6.38,1.94-1.27.83-2.46,1.82-2.2,3.53.28,1.88,1.89,2.31,3.43,2.71.51.13,1.03.19,1.53.28Z"/>
    <path id="Path_70" data-name="Path 70" class="cls-2" d="M112.89,109.91l6.27,32.26c1.39,7.27-3.37,14.29-10.64,15.68-7.24,1.39-14.24-3.33-15.67-10.57l-6.27-32.26c-1.39-7.26,3.34-14.28,10.6-15.71.44-.09.89-.15,1.34-.19,6.84-.6,13.04,4.05,14.37,10.78Z"/>
    <rect id="Rectangle_81" data-name="Rectangle 81" class="cls-3" x="131.87" y="235.67" width="26.35" height="10.42" rx="5.21" ry="5.21" transform="translate(-43.3 32.1) rotate(-11)"/>
    <path id="Path_71" data-name="Path 71" class="cls-5" d="M423.96,65.72c-1.58-.34-3.21-.32-4.78.06-4.58.76-9.14,1.52-13.72,2.22-11.4,1.72-22.74,3.81-34.16,5.5-7.78,1.13-15.49,2.73-23.24,4.09-12.31,2.15-24.65,4.14-36.93,6.5-13.96,2.69-27.91,5.38-41.86,8.08s-27.9,5.43-41.84,8.19c-12.27,2.41-24.46,5.19-36.68,7.81-7.69,1.65-15.44,3.05-23.08,4.91-11.22,2.71-22.52,5.02-33.73,7.69-4.52,1.07-9.03,2.08-13.55,3.08-1.6.24-3.12.83-4.45,1.74-.16.11-.32.24-.47.38.03.05.07.11.1.16.15-.04.3-.08.45-.11l.95,4.87c19.69-1.88,39.48,2.22,56.8,11.77,2.45,1.29,4.82,2.71,7.11,4.27,4.98,4.03,10.23,7.72,15.7,11.05,11.95,6.32,24.84,8.46,38.18,8.62,13.98-.06,27.91-1.71,41.51-4.92l12.55-2.44c13.82-2.12,27.36-5.81,40.34-10.99,12.3-5.15,23.45-11.96,32.16-22.3,3.83-5.14,7.31-10.53,10.43-16.13,1.53-2.3,3.19-4.51,4.98-6.62,12.49-15.34,29.31-26.56,48.27-32.2l-.95-4.87c.15-.03.3-.05.45-.06.02-.06.03-.13.03-.19-.18-.08-.36-.14-.55-.18ZM291.25,125.69l-29.79,5.79c-.48.09-.94-.22-1.03-.7-.09-.47.22-.93.69-1.02h0s29.79-5.79,29.79-5.79c.47-.09.93.22,1.02.69h0c.09.47-.21.93-.68,1.03h0ZM290.18,120.22l-29.79,5.79c-.48.09-.94-.22-1.03-.7s.22-.94.7-1.03h0l29.79-5.79c.48-.07.93.26,1,.74.07.45-.22.88-.67.99ZM289.12,114.75l-29.79,5.79c-.48.09-.94-.22-1.03-.7s.22-.94.7-1.03h0l29.79-5.79c.48-.09.94.22,1.03.7s-.22.94-.7,1.03Z"/>
    <path id="Path_72" data-name="Path 72" class="cls-2" d="M291.93,124.66c.09.47-.21.93-.68,1.03l-29.79,5.79c-.48.09-.94-.22-1.03-.7-.09-.47.22-.93.69-1.02h0s29.79-5.79,29.79-5.79c.47-.09.93.22,1.02.69h0Z"/>
    <path id="Path_73" data-name="Path 73" class="cls-2" d="M290.87,119.19c.09.47-.21.93-.68,1.03l-29.79,5.79c-.48.09-.94-.22-1.03-.7s.22-.94.7-1.03l29.79-5.79c.47-.09.93.23,1.02.7Z"/>
    <path id="Path_74" data-name="Path 74" class="cls-2" d="M289.81,113.72c.09.47-.21.93-.68,1.03l-29.79,5.79c-.48.09-.94-.22-1.03-.7s.22-.94.7-1.03l29.79-5.79c.47-.09.93.23,1.02.7Z"/>
    <path id="Path_75" data-name="Path 75" class="cls-8" d="M376.73,103.22c-.86,2.94-3.18,4.95-4.72,7.46-2.46,4-4.67,8.16-7.45,11.97-.8,1.35-1.91,2.48-3.23,3.32,3.83-5.14,7.31-10.52,10.43-16.13,1.53-2.3,3.19-4.51,4.98-6.62Z"/>
    <path id="Path_76" data-name="Path 76" class="cls-7" d="M425.44,70.89c-.15.04-.3.09-.46.13l-.95-4.87c.15-.03.3-.05.45-.06.02-.06.03-.13.03-.19.03,0,.06.01.09.03,1.31,1.31,1.64,3.3.84,4.96Z"/>
    <path id="Path_77" data-name="Path 77" class="cls-6" d="M422.05,55.9l1.91,9.81c-1.58-.34-3.21-.32-4.78.06-4.58.76-9.14,1.52-13.72,2.22-11.4,1.72-22.74,3.81-34.16,5.5-7.78,1.13-15.49,2.73-23.24,4.09-12.31,2.15-24.65,4.14-36.93,6.5-13.96,2.69-27.91,5.38-41.86,8.08-13.95,2.7-27.9,5.43-41.84,8.19-12.27,2.41-24.46,5.19-36.68,7.81-7.69,1.65-15.44,3.05-23.08,4.91-11.22,2.71-22.52,5.02-33.73,7.69-4.52,1.07-9.03,2.08-13.55,3.08-1.6.24-3.12.83-4.45,1.74l-1.91-9.81c.94-.23,1.89-.43,2.82-.73,8.52-2.81,17.03-5.68,25.57-8.48,14.17-4.64,28.36-9.19,42.52-13.87,16.31-5.39,32.41-11.36,48.84-16.36,3.34-.86,6.55-2.17,9.54-3.9.08-.05.15-.1.24-.14.89.53,1.94.71,2.96.52l36.59-7.11c1.02-.2,1.93-.76,2.55-1.59.09,0,.18.02.27.04,3.41.49,6.88.5,10.3.04,17.11-1.52,34.28-2.02,51.42-3.13,14.87-.96,29.75-2.06,44.62-3.06,8.96-.6,17.93-1.13,26.88-1.72.97-.06,1.93-.24,2.89-.38Z"/>
    <path id="Path_78" data-name="Path 78" class="cls-7" d="M424.52,65.89c-.18-.08-.37-.14-.56-.18l-1.91-9.81c.15-.02.32-.05.48-.07,1.94,2.97,2.65,6.58,1.99,10.06Z"/>
    <path id="Path_79" data-name="Path 79" class="cls-6" d="M444.12,177.79c-3.06,2.06-6.83,2.79-10.43,2.03-.05-.1-.09-.21-.15-.31-8.87-19.25-22.03-34.56-41.04-44.45-9.66-5.12-20.27-8.21-31.17-9.08,3.83-5.14,7.31-10.52,10.43-16.13,1.53-2.3,3.19-4.51,4.98-6.62,4.68,1.28,9.5,1.92,14.05,3.78,14.07,5.75,24.61,15.68,33.18,27.91,8.3,12.2,14.72,25.57,19.06,39.67.31.97.65,1.93.97,2.89.03.1.07.21.11.32Z"/>
    <path id="Path_80" data-name="Path 80" class="cls-1" d="M427.64,22.13c-21.34,5.44-42.67,10.89-64,16.35-1.37.6-2.98.05-3.68-1.28-1.8-2.65-3.85-5.14-6.07-8.05l73.08-10.54c1.13.65,1.53,2.09.88,3.22-.06.11-.13.21-.21.3Z"/>
    <path id="Path_81" data-name="Path 81" class="cls-1" d="M432.87,17.42L503.79,0c-1.02,3.79-2,7.37-2.93,10.96-.29,1.12-1.16,1.12-2.03,1.24-14.04,1.91-28.08,3.82-42.12,5.73-7.71,1.05-15.43,2.06-23.15,3.09-1.16-.67-1.55-2.14-.89-3.3.06-.1.13-.2.2-.3Z"/>
    <path id="Path_82" data-name="Path 82" class="cls-7" d="M432.87,17.42c.23,1.2.46,2.39.69,3.59l2.64,14.39c-1.92.03-3.83.29-5.69.78-.95-4.68-1.91-9.37-2.86-14.05-.23-1.17-.45-2.35-.68-3.52-.22-1.37-.45-2.74-.67-4.12,1.62-1.14,3.65-1.56,5.59-1.15.33,1.36.65,2.72.98,4.09Z"/>
    <path id="Path_83" data-name="Path 83" class="cls-2" d="M431.89,13.34c-1.79.69-3.68,1.08-5.59,1.15-2.19-.32-5.03-.11-5.4-2.98s2.34-3.72,4.48-4.65c2.1-.88,4.42-1.09,6.64-.59,1.49.29,2.96.76,3.36,2.45.44,1.85-.89,2.85-2.17,3.8-.42.31-.87.56-1.32.84Z"/>
    <path id="Path_84" data-name="Path 84" class="cls-2" d="M447.22,44.92l6.27,32.26c1.39,7.27-3.37,14.29-10.64,15.68-7.24,1.39-14.24-3.33-15.67-10.57l-6.27-32.26c-1.29-6.75,2.72-13.38,9.29-15.38.43-.13.87-.24,1.31-.33,1.48-.29,2.99-.32,4.48-.1,5.63.83,10.12,5.11,11.23,10.69h0Z"/>
    <path id="Path_85" data-name="Path 85" class="cls-2" d="M286.44,60.51l.04.2c.44,2.3-1.06,4.53-3.36,4.99l-36.6,7.11c-2.31.44-4.53-1.06-4.99-3.37l-.04-.2c-.44-2.31,1.06-4.54,3.36-4.99l36.6-7.11c2.31-.44,4.54,1.06,4.99,3.37Z"/>
    <rect id="Rectangle_82" data-name="Rectangle 82" class="cls-7" x="259.15" y="48.75" width="5.7" height="12.05" transform="translate(-5.64 51) rotate(-11)"/>
    <rect id="Rectangle_83" data-name="Rectangle 83" class="cls-3" x="426.98" y="178.3" width="26.35" height="10.42" rx="5.21" ry="5.21" transform="translate(-26.93 87.36) rotate(-11)"/>
    <circle id="Ellipse_11" data-name="Ellipse 11" class="cls-4" cx="259.19" cy="40.31" r="10.56"/>
  </g>
</svg>