<svg xmlns="http://www.w3.org/2000/svg" xmlns:xlink="http://www.w3.org/1999/xlink" width="56.096" height="56.095" viewBox="0 0 56.096 56.095">
  <defs>
    <linearGradient id="linear-gradient" y1="0.5" x2="1" y2="0.5" gradientUnits="objectBoundingBox">
      <stop offset="0" stop-color="#f99400"/>
      <stop offset="1" stop-color="#d14c1f"/>
    </linearGradient>
  </defs>
  <path id="Контур_6" data-name="Контур 6" d="M1106.036,314v-8.4a1.79,1.79,0,0,0-1.789-1.789h-6.173a19.93,19.93,0,0,0-1.353-3.268l4.365-4.365a1.789,1.789,0,0,0,0-2.532l-5.941-5.94a1.789,1.789,0,0,0-2.531,0l-4.367,4.367a19.361,19.361,0,0,0-3.268-1.355v-6.176a1.79,1.79,0,0,0-1.789-1.789h-8.4a1.79,1.79,0,0,0-1.791,1.789v6.176a19.351,19.351,0,0,0-3.267,1.355l-4.367-4.367a1.79,1.79,0,0,0-2.531,0l-5.94,5.939a1.79,1.79,0,0,0,0,2.531l4.367,4.367a19.724,19.724,0,0,0-1.357,3.268h-6.172a1.79,1.79,0,0,0-1.791,1.789V314a1.79,1.79,0,0,0,1.791,1.791h6.175a19.473,19.473,0,0,0,1.355,3.267l-4.367,4.367a1.79,1.79,0,0,0,0,2.531l5.94,5.943a1.79,1.79,0,0,0,2.531,0l4.367-4.367a19.792,19.792,0,0,0,3.267,1.352v6.175a1.79,1.79,0,0,0,1.791,1.789h8.4a1.79,1.79,0,0,0,1.789-1.789v-6.175a19.8,19.8,0,0,0,3.268-1.352l4.367,4.367a1.79,1.79,0,0,0,2.531,0l5.943-5.943a1.79,1.79,0,0,0,0-2.531l-4.367-4.367a19.663,19.663,0,0,0,1.351-3.267h6.176A1.79,1.79,0,0,0,1106.036,314Zm-27.049,6.693a10.893,10.893,0,1,1,10.895-10.895A10.894,10.894,0,0,1,1078.987,320.7Z" transform="translate(-1050.94 -281.755)" stroke="#fff" stroke-linejoin="round" stroke-width="2" fill="url(#linear-gradient)"/>
</svg>
