<?xml version="1.0" encoding="UTF-8"?>
<svg id="Layer_1" data-name="Layer 1" xmlns="http://www.w3.org/2000/svg" xmlns:xlink="http://www.w3.org/1999/xlink" viewBox="0 0 499.18 499.56">
  <defs>
    <style>
      .cls-1 {
        fill: url(#linear-gradient);
      }

      .cls-1, .cls-2 {
        stroke-width: 0px;
      }

      .cls-2 {
        fill: url(#linear-gradient-2);
      }
    </style>
    <linearGradient id="linear-gradient" x1=".56" y1="497.39" x2="3.46" y2="497.39" gradientTransform="translate(-82.17 65104.14) scale(145.69 -130.27)" gradientUnits="userSpaceOnUse">
      <stop offset="0" stop-color="#f99400"/>
      <stop offset="1" stop-color="#d14c1f"/>
    </linearGradient>
    <linearGradient id="linear-gradient-2" x1=".93" y1="497.97" x2="3.83" y2="497.97" gradientTransform="translate(-54.18 63655.56) scale(144.48 -127.46)" gradientUnits="userSpaceOnUse">
      <stop offset="0" stop-color="#006bb6"/>
      <stop offset="1" stop-color="#16adcd"/>
    </linearGradient>
  </defs>
  <g id="Group_16" data-name="Group 16">
    <path id="Path_4" data-name="Path 4" class="cls-1" d="M422.2,295.5v134.68c-99.55,95.41-257.54,91.99-352.87-7.64C-8.35,341.36-22.28,218.24,35.29,121.73c-.43,1.14-.85,2.28-1.26,3.44-5.71,16.7-8.55,34.24-8.39,51.89-.14,17.31,2.69,34.52,8.39,50.87,5.23,15.15,13.42,29.1,24.1,41.05,10.72,11.84,23.88,21.2,38.58,27.44,16.3,6.85,33.84,10.24,51.52,9.96,14.38.17,28.68-2.19,42.25-6.96,3.45-1.25,6.83-2.68,10.12-4.28,1.51-.74,3.34-.1,4.07,1.41.2.42.31.88.31,1.34v149.25c0,3.96,3.21,7.16,7.16,7.16h37.01c3.95,0,7.16-3.21,7.16-7.16v-150.04c0-1.7,1.38-3.07,3.07-3.07,1.3,0,2.45.82,2.89,2.04l54.18,153.46c1.01,2.86,3.72,4.78,6.75,4.78h32.11c3.04,0,5.75-1.93,6.76-4.8l54.19-155.01c.58-1.59,2.35-2.41,3.94-1.83,1.19.44,1.99,1.56,2.01,2.83Z"/>
    <path id="Path_5" data-name="Path 5" class="cls-2" d="M473.52,360.13v-148.25c0-3.96-3.2-7.17-7.16-7.17h-64.8c-3.11,0-5.86,2.01-6.82,4.97l-51.09,157.87c-.52,1.61-2.25,2.5-3.87,1.97-.92-.3-1.64-1.01-1.96-1.92l-54.02-158.01c-.99-2.91-3.72-4.86-6.78-4.86h-19.13v-.05h-46.97c-3.44,0-6.39,2.46-7.02,5.85-2.05,12.89-7.73,24.92-16.39,34.68-9.43,10.27-22.53,15.4-39.28,15.39-10.91.33-21.73-2.13-31.42-7.16-8.41-4.59-15.61-11.12-20.97-19.07-5.45-8.14-9.41-17.19-11.68-26.73-2.47-10.01-3.7-20.29-3.67-30.6-.03-10.71,1.2-21.38,3.67-31.8,2.23-9.77,6.19-19.06,11.68-27.44,5.33-8.01,12.52-14.61,20.97-19.21,9.69-5.05,20.51-7.52,31.42-7.19,13.08-.04,25.77,4.4,35.97,12.59,6.1,4.92,11.1,11.09,14.65,18.08,1.16,2.55,2.11,5.2,2.83,7.91.91,3.02,3.68,5.1,6.83,5.12h38.95c3.97,0,7.18-3.22,7.18-7.18,0-.43-.04-.85-.11-1.27-1.86-10.52-5.45-20.66-10.62-30.01-6.02-10.87-14.15-20.44-23.91-28.13-9.84-7.66-20.96-13.51-32.84-17.29-29.72-9.18-61.7-7.71-90.45,4.17-3.29,1.45-6.47,3.03-9.53,4.72C134.82,19.17,196.18-2.25,258.94.19c130.86,4.78,236.77,112.01,240.15,243.03,1.11,40.47-7.66,80.61-25.56,116.92Z"/>
  </g>
</svg>