<svg xmlns="http://www.w3.org/2000/svg" xmlns:xlink="http://www.w3.org/1999/xlink" width="55.612" height="55.494" viewBox="0 0 55.612 55.494">
  <defs>
    <linearGradient id="linear-gradient" y1="0.5" x2="1" y2="0.5" gradientUnits="objectBoundingBox">
      <stop offset="0" stop-color="#f99400"/>
      <stop offset="1" stop-color="#d14c1f"/>
    </linearGradient>
  </defs>
  <path id="Контур_12" data-name="Контур 12" d="M1092.733,599.125a16.713,16.713,0,0,1-7.775-1.7c-12.288-6.544-22.5-15.327-29.332-27.668a43.2,43.2,0,0,1-3.04-6.895,13.563,13.563,0,0,1,5.952-16.6,4.192,4.192,0,0,1,5.667,1.241c2.283,3.415,4.513,6.865,6.832,10.255,1.105,1.615,1.119,3.555-.689,4.585a7.647,7.647,0,0,0-1.636,1.525c-2.461,2.635-2.8,4.843-1.1,7.988a27.467,27.467,0,0,0,13.6,12.4,3.838,3.838,0,0,0,4.464-1.029c.945-.907,1.811-1.893,2.733-2.824a3.369,3.369,0,0,1,4.675-.543q5.328,3.49,10.607,7.055a3.98,3.98,0,0,1,.851,5.6A14.208,14.208,0,0,1,1092.733,599.125Z" transform="translate(-1050.715 -544.631)" stroke="#fff" stroke-linejoin="round" stroke-width="2" fill="url(#linear-gradient)"/>
</svg>
