<svg xmlns="http://www.w3.org/2000/svg" xmlns:xlink="http://www.w3.org/1999/xlink" width="36.658" height="19.008" viewBox="0 0 36.658 19.008">
  <defs>
    <linearGradient id="linear-gradient" y1="0.5" x2="1" y2="0.5" gradientUnits="objectBoundingBox">
      <stop offset="0" stop-color="#f99400"/>
      <stop offset="1" stop-color="#d14c1f"/>
    </linearGradient>
  </defs>
  <path id="Контур_21" data-name="Контур 21" d="M783.762,1922.2a.224.224,0,0,1,0,.378l-3.575,2.277-2.217,1.411-7.2,4.581a.224.224,0,0,1-.345-.189v-4.167a.225.225,0,0,0-.225-.225H749.432a.223.223,0,0,1-.224-.224v-7.3a.223.223,0,0,1,.224-.224H770.2a.225.225,0,0,0,.225-.225v-4.167a.224.224,0,0,1,.345-.189l7.2,4.581,2.211,1.411Z" transform="translate(-748.208 -1912.887)" stroke="#fff" stroke-linecap="round" stroke-linejoin="round" stroke-width="2" fill="url(#linear-gradient)"/>
</svg>
