<svg xmlns="http://www.w3.org/2000/svg" xmlns:xlink="http://www.w3.org/1999/xlink" width="46" height="22.539" viewBox="0 0 46 22.539">
  <defs>
    <linearGradient id="linear-gradient" x1="1" y1="0.5" x2="0" y2="0.5" gradientUnits="objectBoundingBox">
      <stop offset="0" stop-color="#f99400"/>
      <stop offset="1" stop-color="#d14c1f"/>
    </linearGradient>
  </defs>
  <path id="Контур_26" data-name="Контур 26" d="M749.346,1924.916a.3.3,0,0,0,0,.5l4.745,3.023,2.942,1.872,9.553,6.08a.3.3,0,0,0,.457-.251v-5.53a.3.3,0,0,1,.3-.3h27.57a.3.3,0,0,0,.3-.3v-9.69a.3.3,0,0,0-.3-.3h-27.57a.3.3,0,0,1-.3-.3V1914.2a.3.3,0,0,0-.457-.251l-9.56,6.081-2.935,1.872Z" transform="translate(-749.208 -1913.9)" fill="url(#linear-gradient)"/>
</svg>
