<?xml version="1.0" encoding="UTF-8"?>
<svg id="Layer_1" data-name="Layer 1" xmlns="http://www.w3.org/2000/svg" version="1.1" viewBox="0 0 107 194">
  <defs>
    <style>
      .cls-1 {
        fill: #26b9d5;
      }

      .cls-1, .cls-2, .cls-3, .cls-4, .cls-5, .cls-6, .cls-7, .cls-8, .cls-9, .cls-10, .cls-11, .cls-12 {
        stroke-width: 0px;
      }

      .cls-2 {
        fill: #353434;
      }

      .cls-3 {
        fill: #e16520;
      }

      .cls-4 {
        fill: #d48a4e;
      }

      .cls-5 {
        fill: #c27845;
      }

      .cls-6 {
        fill: #007cc1;
      }

      .cls-7 {
        fill: #58351d;
      }

      .cls-8 {
        fill: #161615;
      }

      .cls-9 {
        fill: #a16337;
      }

      .cls-10 {
        fill: #040405;
      }

      .cls-11 {
        fill: #fff;
      }

      .cls-12 {
        fill: #202020;
      }
    </style>
  </defs>
  <g id="Group_219" data-name="Group 219">
    <g id="Group_130" data-name="Group 130">
      <rect id="Rectangle_87" data-name="Rectangle 87" class="cls-10" x="5" y="4" width="97.8" height="186.2" rx="6.9" ry="6.9"/>
    </g>
    <g id="Group_131" data-name="Group 131">
      <rect id="Rectangle_88" data-name="Rectangle 88" class="cls-11" x="8.6" y="17.5" width="90.5" height="153.6" rx="6" ry="6"/>
    </g>
    <g id="Group_132" data-name="Group 132">
      <path id="Rectangle_89" data-name="Rectangle 89" class="cls-12" d="M41,10.3h25.8c.3,0,.6.3.6.6h0c0,.3-.3.6-.6.6h-25.8c-.3,0-.6-.3-.6-.6h0c0-.3.3-.6.6-.6Z"/>
    </g>
    <g id="Group_133" data-name="Group 133">
      <circle id="Ellipse_26" data-name="Ellipse 26" class="cls-12" cx="33.2" cy="10.9" r="2"/>
    </g>
    <g id="Group_134" data-name="Group 134">
      <circle id="Ellipse_27" data-name="Ellipse 27" class="cls-2" cx="33.2" cy="10.9" r="1.3"/>
    </g>
    <g id="Group_135" data-name="Group 135">
      <path id="Path_170" data-name="Path 170" class="cls-12" d="M53.9,187.6c-3.9,0-7-3.1-7-7,0-3.9,3.1-7,7-7,3.9,0,7,3.1,7,7,0,3.9-3.1,7-7,7ZM53.9,174.6c-3.3,0-6,2.7-6,6,0,3.3,2.7,6,6,6,3.3,0,6-2.7,6-6h0c0-3.3-2.7-6-6-6h0Z"/>
    </g>
    <g id="Group_142" data-name="Group 142">
      <g id="Group_136" data-name="Group 136">
        <path id="Path_171" data-name="Path 171" class="cls-4" d="M84.5,106.2l-30.6,14.2v-40.3l30.6-14.2v40.3Z"/>
      </g>
      <g id="Group_137" data-name="Group 137">
        <path id="Path_172" data-name="Path 172" class="cls-5" d="M53.9,120.3l-30.6-14.2v-40.3l30.6,14.2v40.3Z"/>
      </g>
      <g id="Group_138" data-name="Group 138">
        <path id="Path_173" data-name="Path 173" class="cls-9" d="M84.5,65.9l-30.6,14.2-30.6-14.2,30.6-14,30.6,14Z"/>
      </g>
      <g id="Group_139" data-name="Group 139">
        <path id="Path_174" data-name="Path 174" class="cls-7" d="M81.9,104.3l-6.9,3.2v-2.6l6.9-3.2v2.6Z"/>
      </g>
      <g id="Group_140" data-name="Group 140">
        <path id="Path_175" data-name="Path 175" class="cls-7" d="M81.9,100.4l-6.9,3.2v-2.6l6.9-3.2v2.6Z"/>
      </g>
      <g id="Group_141" data-name="Group 141">
        <path id="Path_176" data-name="Path 176" class="cls-7" d="M37.1,59.5l30.6,14.2v5.2l5.8-2.7v-5.2l-30.5-14.2-5.9,2.7Z"/>
      </g>
    </g>
    <g id="Group_204" data-name="Group 204">
      <g id="Group_143" data-name="Group 143">
        <path id="Path_177" data-name="Path 177" class="cls-8" d="M17.8,136.4c.2,0,.3,0,.5,0,.1,0,.3,0,.4.2.1,0,.2.2.3.3,0,.1,0,.3,0,.5,0,.2,0,.3-.1.5-.1.1-.2.3-.4.3.2,0,.4.2.5.4.2.3.2.8,0,1.1,0,.1-.2.3-.3.4-.1,0-.3.2-.4.2-.2,0-.3,0-.5,0h-1.9v-3.9h1.8ZM17.7,138c.1,0,.3,0,.4-.1.1,0,.2-.2.1-.4,0,0,0-.2,0-.2,0,0,0-.1-.1-.1,0,0-.1,0-.2,0,0,0-.1,0-.2,0h-.8v.9h.9ZM17.7,139.6c0,0,.2,0,.2,0,0,0,.1,0,.2,0,0,0,.1,0,.1-.2,0,0,0-.2,0-.2,0-.2,0-.3-.2-.4-.1,0-.3-.1-.4-.1h-.9v1.1h.9Z"/>
      </g>
      <g id="Group_144" data-name="Group 144">
        <path id="Path_178" data-name="Path 178" class="cls-8" d="M20.5,139.6c.3.2.6.2.9,0,0,0,.2-.1.2-.2h.7c0,.3-.3.5-.5.7-.2.2-.5.2-.8.2-.2,0-.4,0-.6-.1-.2,0-.3-.2-.5-.3-.1-.1-.2-.3-.3-.5,0-.2-.1-.4-.1-.6,0-.2,0-.4.1-.6.1-.4.4-.6.7-.8.2,0,.4-.1.6-.1.2,0,.4,0,.6.1.2,0,.3.2.4.4.1.2.2.3.2.5,0,.2,0,.4,0,.6h-2c0,.2,0,.4.2.5ZM21.4,138.1c-.1-.1-.3-.2-.4-.2-.1,0-.2,0-.3,0,0,0-.1,0-.2.2,0,0,0,.1-.1.2,0,0,0,.1,0,.2h1.3c0-.2,0-.3-.2-.4h0Z"/>
      </g>
      <g id="Group_145" data-name="Group 145">
        <path id="Path_179" data-name="Path 179" class="cls-8" d="M24.8,139.9c0,.1-.2.3-.4.3-.2,0-.3.1-.5.1-.2,0-.4,0-.6-.1-.2,0-.3-.2-.4-.3-.1-.1-.2-.3-.2-.5,0-.2,0-.4,0-.6,0-.2,0-.4,0-.5,0-.2.1-.3.2-.5.2-.3.6-.5.9-.4.2,0,.3,0,.5.1.1,0,.3.2.4.3h0v-1.4h.8v3.9h-.7v-.4h0ZM24.8,138.5c0-.1,0-.2-.1-.3,0,0-.1-.1-.2-.2,0,0-.2,0-.3,0-.1,0-.2,0-.3,0,0,0-.2.1-.2.2,0,0,0,.2-.1.3,0,.1,0,.2,0,.3,0,.1,0,.2,0,.3,0,.1,0,.2.1.3,0,0,.1.2.2.2,0,0,.2,0,.3,0,.1,0,.2,0,.3,0,0,0,.2-.1.2-.2,0,0,0-.2.1-.3,0-.1,0-.2,0-.3,0-.1,0-.2,0-.3h0Z"/>
      </g>
      <g id="Group_146" data-name="Group 146">
        <path id="Path_180" data-name="Path 180" class="cls-8" d="M26.1,138.3c0-.2,0-.3.1-.5,0-.1.2-.2.3-.3.1,0,.3-.1.4-.2.2,0,.3,0,.5,0,.1,0,.3,0,.4,0,.1,0,.3,0,.4.1.1,0,.2.1.3.2,0,.1.1.3.1.4v1.5c0,.1,0,.2,0,.4,0,0,0,.2,0,.3h-.8s0,0,0-.1c0,0,0,0,0-.1-.1.1-.3.2-.4.3-.2,0-.3,0-.5,0-.1,0-.3,0-.4,0-.1,0-.2,0-.3-.2,0,0-.2-.2-.2-.3,0-.1,0-.2,0-.4,0-.1,0-.3,0-.4,0,0,.1-.2.2-.2,0,0,.2-.1.3-.1.1,0,.2,0,.3,0,.1,0,.2,0,.3,0,.1,0,.2,0,.3,0,0,0,.1,0,.2,0,0,0,0-.1,0-.2,0,0,0-.1,0-.2,0,0,0,0-.1-.1,0,0-.1,0-.2,0,0,0-.1,0-.2,0-.1,0-.3,0-.4,0,0,0-.2.2-.2.3h-.8ZM27.9,138.9s0,0-.1,0c0,0-.1,0-.2,0,0,0-.1,0-.2,0s-.1,0-.2,0c0,0-.1,0-.2,0,0,0-.1,0-.1,0,0,0,0,0-.1.1,0,0,0,.1,0,.2,0,0,0,.1,0,.2,0,0,0,0,.1.1,0,0,0,0,.2,0,0,0,.1,0,.2,0,.1,0,.2,0,.4,0,0,0,.1-.1.2-.2,0,0,0-.1,0-.2,0,0,0-.1,0-.2v-.3Z"/>
      </g>
      <g id="Group_147" data-name="Group 147">
        <path id="Path_181" data-name="Path 181" class="cls-8" d="M30,137.5v.4h0c0-.2.2-.3.4-.4.1,0,.3-.1.5-.1.2,0,.3,0,.5,0,.1,0,.2.1.3.2,0,.1.1.2.2.4,0,.2,0,.3,0,.5v1.7h-.8v-1.6c0-.2,0-.4-.1-.5,0-.1-.2-.2-.4-.2-.2,0-.3,0-.5.2-.1.2-.2.4-.1.6v1.5h-.8v-2.8h.7Z"/>
      </g>
      <g id="Group_148" data-name="Group 148">
        <path id="Path_182" data-name="Path 182" class="cls-8" d="M33.3,136.4v2.1l1-1h.9l-1.1,1,1.2,1.8h-.9l-.8-1.3-.3.3v1h-.8v-3.9h.8Z"/>
      </g>
      <g id="Group_149" data-name="Group 149">
        <path id="Path_183" data-name="Path 183" class="cls-8" d="M37.1,137.5v.5h-.6v1.4c0,.1,0,.3.2.3,0,0,0,0,.1,0,0,0,0,0,.1,0,0,0,0,0,.1,0v.6c0,0-.1,0-.2,0,0,0-.2,0-.2,0-.1,0-.2,0-.3,0,0,0-.2,0-.3,0,0,0-.1-.1-.2-.2,0-.1,0-.2,0-.3v-1.7h-.5v-.5h.5v-.8h.8v.8h.6Z"/>
      </g>
      <g id="Group_150" data-name="Group 150">
        <path id="Path_184" data-name="Path 184" class="cls-8" d="M39.7,140.3l-1-2.8h.8l.6,1.9h0l.6-1.9h.8l-1,2.8h-.9Z"/>
      </g>
      <g id="Group_151" data-name="Group 151">
        <path id="Path_185" data-name="Path 185" class="cls-8" d="M41.8,138.3c0-.2.2-.3.3-.5.1-.1.3-.2.5-.3.2,0,.4-.1.6-.1.2,0,.4,0,.6.1.4.1.6.4.8.8,0,.2.1.4.1.6,0,.2,0,.4-.1.6,0,.2-.2.3-.3.5-.1.1-.3.2-.5.3-.2,0-.4.1-.6.1-.2,0-.4,0-.6-.1-.2,0-.3-.2-.5-.3-.1-.1-.2-.3-.3-.5,0-.2-.1-.4-.1-.6,0-.2,0-.4.1-.6ZM42.5,139.2c0,.1,0,.2.1.3,0,0,.1.2.2.2,0,0,.2,0,.3,0,.1,0,.2,0,.3,0,0,0,.2-.1.2-.2,0,0,0-.2.1-.3,0-.1,0-.2,0-.3,0-.1,0-.2,0-.3,0-.1,0-.2-.1-.3,0,0-.1-.2-.2-.2-.1,0-.2,0-.3,0-.2,0-.4,0-.5.3,0,0,0,.2-.1.3,0,.1,0,.2,0,.3,0,.1,0,.2,0,.3h0Z"/>
      </g>
      <g id="Group_152" data-name="Group 152">
        <path id="Path_186" data-name="Path 186" class="cls-8" d="M45.1,138.3c.1-.4.4-.6.7-.8.2,0,.4-.1.6-.1.2,0,.4,0,.6.1.4.1.6.4.8.8,0,.2.1.4.1.6,0,.2,0,.4-.1.6,0,.2-.2.3-.3.5-.1.1-.3.2-.5.3-.2,0-.4.1-.6.1-.2,0-.4,0-.6-.1-.2,0-.3-.2-.5-.3-.1-.1-.2-.3-.3-.5,0-.2-.1-.4-.1-.6,0-.2,0-.4.1-.6ZM45.8,139.2c0,.1,0,.2.1.3,0,0,.1.2.2.2,0,0,.2,0,.3,0,.1,0,.2,0,.3,0,0,0,.2-.1.2-.2,0,0,0-.2.1-.3,0-.1,0-.2,0-.3,0-.1,0-.2,0-.3,0-.1,0-.2-.1-.3,0,0-.1-.2-.2-.2-.1,0-.2,0-.3,0-.2,0-.4,0-.5.3,0,0,0,.2-.1.3,0,.1,0,.2,0,.3,0,.1,0,.2,0,.3h0Z"/>
      </g>
      <g id="Group_153" data-name="Group 153">
        <path id="Path_187" data-name="Path 187" class="cls-8" d="M49.2,137.5v.5h0c0,0,0-.2.1-.2,0,0,.1-.1.2-.2,0,0,.2,0,.3-.1,0,0,.2,0,.3,0,0,0,.1,0,.2,0v.7s0,0-.1,0c0,0,0,0-.1,0-.1,0-.2,0-.4,0,0,0-.2.1-.2.2,0,0-.1.2-.1.3,0,.1,0,.2,0,.4v1.3h-.8v-2.8h.7Z"/>
      </g>
      <g id="Group_154" data-name="Group 154">
        <path id="Path_188" data-name="Path 188" class="cls-8" d="M51.8,140.6c0,0,.1,0,.2,0,0,0,0,0,0-.2v-2.9h.8v2.9c0,.1,0,.3,0,.4,0,.1,0,.2-.2.3,0,0-.2.1-.3.2-.2,0-.3,0-.5,0,0,0-.2,0-.2,0v-.6c0,0,.1,0,.2,0ZM52.1,137v-.6h.8v.6h-.8Z"/>
      </g>
      <g id="Group_155" data-name="Group 155">
        <path id="Path_189" data-name="Path 189" class="cls-8" d="M54.4,139.6c.3.2.6.2.9,0,0,0,.2-.1.2-.2h.7c0,.3-.3.5-.5.7-.2.1-.5.2-.8.2-.2,0-.4,0-.6-.1-.2,0-.3-.2-.5-.3-.1-.1-.2-.3-.3-.5,0-.2-.1-.4,0-.6,0-.2,0-.4.1-.6.1-.4.4-.6.7-.8.2,0,.4-.1.6-.1.2,0,.4,0,.6.1.2,0,.3.2.4.4.1.2.2.3.2.5,0,.2,0,.4,0,.6h-2c0,.2,0,.4.2.5ZM55.3,138.1c-.1-.1-.3-.2-.4-.2-.1,0-.2,0-.3,0,0,0-.1,0-.2.2,0,0,0,.1-.1.2,0,0,0,.1,0,.2h1.3c0-.2,0-.3-.2-.4h0Z"/>
      </g>
      <g id="Group_156" data-name="Group 156">
        <path id="Path_190" data-name="Path 190" class="cls-8" d="M59,136.4v1.4h0c0-.1.2-.3.4-.3.2,0,.3-.1.5-.1.3,0,.6.1.8.4.1.1.2.3.3.5.1.4.1.9,0,1.3,0,.2-.2.3-.3.5-.2.2-.5.4-.8.4-.2,0-.4,0-.6,0-.2,0-.3-.2-.4-.3h0v.4h-.7v-3.9h.8ZM60.2,138.5c0-.1,0-.2-.1-.3,0,0-.1-.1-.2-.2-.2,0-.4,0-.6,0,0,0-.2.1-.2.2,0,0,0,.2-.1.3,0,.1,0,.2,0,.3,0,.1,0,.2,0,.3,0,.1,0,.2.1.3,0,0,.1.1.2.2.2,0,.4,0,.6,0,0,0,.2-.1.2-.2,0,0,0-.2.1-.3,0-.1,0-.2,0-.3,0-.1,0-.2,0-.3Z"/>
      </g>
      <g id="Group_157" data-name="Group 157">
        <path id="Path_191" data-name="Path 191" class="cls-8" d="M62.3,139.6c.3.2.6.2.9,0,0,0,.2-.1.2-.2h.7c0,.3-.3.5-.5.7-.2.1-.5.2-.8.2-.2,0-.4,0-.6-.1-.2,0-.3-.2-.5-.3-.1-.1-.2-.3-.3-.5,0-.2-.1-.4-.1-.6,0-.2,0-.4.1-.6.1-.4.4-.6.7-.8.2,0,.4-.1.6-.1.2,0,.4,0,.6.1.2,0,.3.2.4.4.1.2.2.3.2.5,0,.2,0,.4,0,.6h-2c0,.2,0,.4.2.5ZM63.2,138.1c-.1-.1-.3-.2-.4-.2-.1,0-.2,0-.3,0,0,0-.1,0-.2.2,0,0,0,.1-.1.2,0,0,0,.1,0,.2h1.3c0-.2,0-.3-.2-.4h0Z"/>
      </g>
      <g id="Group_158" data-name="Group 158">
        <path id="Path_192" data-name="Path 192" class="cls-8" d="M65.3,139.6c0,0,0,.1.1.1,0,0,.1,0,.2,0,0,0,.1,0,.2,0,0,0,.1,0,.2,0,0,0,.1,0,.2,0,0,0,0,0,.1-.1,0,0,0-.1,0-.2,0-.1,0-.2-.2-.3-.2,0-.4-.1-.6-.2-.1,0-.2,0-.3,0-.1,0-.2,0-.3-.1,0,0-.2-.1-.2-.2,0,0,0-.2,0-.3,0-.2,0-.3.1-.4,0-.1.2-.2.3-.3.1,0,.3-.1.4-.1.1,0,.3,0,.4,0,.1,0,.3,0,.4,0,.1,0,.3,0,.4.1.1,0,.2.2.3.3,0,.1.1.3.1.4h-.7c0-.1,0-.2-.2-.3-.1,0-.2,0-.4,0,0,0,0,0-.1,0,0,0,0,0-.1,0,0,0,0,0-.1,0,0,0,0,0,0,.1,0,0,0,.1,0,.2,0,0,.1,0,.2.1,0,0,.2,0,.3,0,.1,0,.2,0,.3,0s.2,0,.3,0c.1,0,.2,0,.3.1,0,0,.2.1.2.2,0,.1,0,.2,0,.3,0,.3-.1.6-.4.8-.1,0-.3.1-.4.2-.2,0-.3,0-.5,0-.2,0-.3,0-.5,0-.1,0-.3,0-.4-.2-.1,0-.2-.2-.3-.3,0-.1-.1-.3-.1-.5h.7c0,0,0,.1,0,.2Z"/>
      </g>
      <g id="Group_159" data-name="Group 159">
        <path id="Path_193" data-name="Path 193" class="cls-8" d="M69.1,137.5v.5h-.6v1.4c0,.1,0,.3.2.3,0,0,0,0,.1,0,0,0,0,0,.1,0,0,0,0,0,.1,0v.6c0,0-.1,0-.2,0,0,0-.2,0-.2,0-.1,0-.2,0-.3,0,0,0-.2,0-.3,0,0,0-.1-.1-.2-.2,0-.1,0-.2,0-.3v-1.7h-.5v-.5h.5v-.8h.8v.8h.6Z"/>
      </g>
      <g id="Group_160" data-name="Group 160">
        <path id="Path_194" data-name="Path 194" class="cls-8" d="M70.3,139.6c.3.2.6.2.9,0,0,0,.2-.1.2-.2h.7c0,.3-.3.5-.5.7-.2.1-.5.2-.8.2-.2,0-.4,0-.6-.1-.2,0-.3-.2-.5-.3-.1-.1-.2-.3-.3-.5,0-.2-.1-.4-.1-.6,0-.2,0-.4.1-.6.1-.4.4-.6.7-.8.2,0,.4-.1.6-.1.2,0,.4,0,.6.1.2,0,.3.2.4.4.1.2.2.3.2.5,0,.2,0,.4,0,.6h-2c0,.2,0,.4.2.5ZM71.2,138.1c-.1-.1-.3-.2-.4-.2-.1,0-.2,0-.3,0,0,0-.1,0-.2.2,0,0,0,.1-.1.2,0,0,0,.1,0,.2h1.3c0-.2,0-.3-.2-.4h0Z"/>
      </g>
      <g id="Group_161" data-name="Group 161">
        <path id="Path_195" data-name="Path 195" class="cls-8" d="M73.4,136.4v3.9h-.8v-3.9h.8Z"/>
      </g>
      <g id="Group_162" data-name="Group 162">
        <path id="Path_196" data-name="Path 196" class="cls-8" d="M74.8,136.4v3.9h-.8v-3.9h.8Z"/>
      </g>
      <g id="Group_163" data-name="Group 163">
        <path id="Path_197" data-name="Path 197" class="cls-8" d="M75.4,137v-.6h.8v.6h-.8ZM76.2,137.5v2.8h-.8v-2.8h.8Z"/>
      </g>
      <g id="Group_164" data-name="Group 164">
        <path id="Path_198" data-name="Path 198" class="cls-8" d="M77.5,137.5v.4h0c0-.2.2-.3.4-.4.1,0,.3-.1.5-.1.2,0,.3,0,.5,0,.1,0,.2.1.3.2,0,.1.1.2.2.4,0,.2,0,.3,0,.5v1.7h-.8v-1.6c0-.2,0-.4-.1-.5,0-.1-.2-.2-.4-.2-.2,0-.3,0-.5.2-.1.2-.2.4-.1.6v1.5h-.8v-2.8h.7Z"/>
      </g>
      <g id="Group_165" data-name="Group 165">
        <path id="Path_199" data-name="Path 199" class="cls-8" d="M82.7,140.5c0,.1-.1.3-.2.4-.1.1-.3.2-.4.3-.2,0-.5.1-.8.1-.1,0-.3,0-.4,0-.1,0-.3,0-.4-.2-.1,0-.2-.2-.3-.3,0-.1-.1-.3-.1-.4h.8c0,.1.1.2.2.3.1,0,.2,0,.4,0,.2,0,.4,0,.5-.2.1-.1.2-.3.1-.5v-.4h0c0,.1-.2.3-.4.3-.2,0-.3.1-.5.1-.2,0-.4,0-.5-.1-.1,0-.3-.2-.4-.3-.1-.1-.2-.3-.2-.5,0-.2,0-.4,0-.5,0-.2,0-.4,0-.5,0-.2.1-.3.2-.4.1-.1.2-.2.4-.3.2,0,.3-.1.5-.1.2,0,.3,0,.5.1.1,0,.3.2.4.3h0v-.4h.7v2.6c0,.1,0,.3,0,.4ZM81.6,139.5c0,0,.2-.1.2-.2,0,0,0-.2.1-.2,0,0,0-.2,0-.3,0-.1,0-.2,0-.3,0,0,0-.2-.1-.3,0,0-.1-.1-.2-.2,0,0-.2,0-.3,0,0,0-.2,0-.3,0,0,0-.1.1-.2.2,0,0,0,.2-.1.3,0,0,0,.2,0,.3,0,.1,0,.2,0,.3,0,0,0,.2.1.3,0,0,.1.1.2.2,0,0,.2,0,.3,0,0,0,.2,0,.3,0Z"/>
      </g>
      <g id="Group_166" data-name="Group 166">
        <path id="Path_200" data-name="Path 200" class="cls-8" d="M84.2,139.4v.8h-.9v-.8h.9ZM84,139.1h-.4l-.2-1.7v-1h.8v1l-.2,1.7Z"/>
      </g>
      <g id="Group_167" data-name="Group 167">
        <path id="Path_201" data-name="Path 201" class="cls-8" d="M88.7,139.5c0,.3-.3.6-.6.8-.2,0-.5.1-.7.1-.2,0-.3,0-.5,0-.1,0-.3-.1-.4-.2-.1,0-.2-.2-.3-.4,0-.2-.1-.4-.1-.5v-.3h.8v.2c0,0,0,.2,0,.3,0,0,0,.1,0,.2,0,0,0,.1.1.1,0,0,.2,0,.2,0,0,0,.2,0,.3,0,0,0,.1,0,.1-.2,0,0,0-.1,0-.2,0,0,0-.1,0-.2v-2.6h.9v2.7c0,.1,0,.3,0,.4Z"/>
      </g>
      <g id="Group_168" data-name="Group 168">
        <path id="Path_202" data-name="Path 202" class="cls-8" d="M90.2,139.6c.3.2.6.2.9,0,0,0,.2-.1.2-.2h.7c0,.3-.3.5-.5.7-.2.1-.5.2-.8.2-.2,0-.4,0-.6-.1-.2,0-.3-.2-.5-.3-.1-.1-.2-.3-.3-.5,0-.2-.1-.4,0-.6,0-.2,0-.4.1-.6.1-.4.4-.6.7-.8.2,0,.4-.1.6-.1.2,0,.4,0,.6.1.2,0,.3.2.4.4.1.2.2.3.2.5,0,.2,0,.4,0,.6h-2c0,.2,0,.4.2.5ZM91.1,138.1c-.1-.1-.3-.2-.4-.2-.1,0-.2,0-.3,0,0,0-.1,0-.2.2,0,0,0,.1-.1.2,0,0,0,.1,0,.2h1.3c0-.2,0-.3-.2-.4h0Z"/>
      </g>
      <g id="Group_169" data-name="Group 169">
        <path id="Path_203" data-name="Path 203" class="cls-8" d="M17.4,144v.4h0c0-.1.2-.3.4-.3.1,0,.3-.1.5-.1.2,0,.4,0,.6.1.2,0,.3.2.4.3.1.1.2.3.2.5,0,.2,0,.4,0,.6,0,.2,0,.4,0,.5,0,.2-.1.3-.2.5-.1.1-.2.2-.4.3-.2,0-.4.1-.5.1-.2,0-.3,0-.5-.1-.1,0-.3-.2-.4-.3h0v1.3h-.8v-3.8h.7ZM18.4,146.2c0,0,.2-.1.2-.2,0,0,0-.2.1-.3,0-.1,0-.2,0-.3,0-.1,0-.2,0-.3,0-.1,0-.2-.1-.3,0,0-.1-.2-.2-.2,0,0-.2,0-.3,0-.1,0-.2,0-.3,0,0,0-.2.1-.2.2,0,0,0,.2-.1.3,0,.1,0,.2,0,.3,0,.1,0,.2,0,.3,0,.1,0,.2.1.3.2.3.6.4.8.2h0Z"/>
      </g>
      <g id="Group_170" data-name="Group 170">
        <path id="Path_204" data-name="Path 204" class="cls-8" d="M19.9,144.8c0-.2,0-.3.1-.5,0-.1.2-.2.3-.3.1,0,.3-.1.4-.2.2,0,.3,0,.5,0,.1,0,.3,0,.4,0,.1,0,.3,0,.4.1.1,0,.2.1.3.2,0,.1.1.3.1.4v1.5c0,.1,0,.2,0,.4,0,0,0,.2,0,.3h-.8s0,0,0-.1c0,0,0,0,0-.1-.1.1-.3.2-.4.3-.2,0-.3,0-.5,0-.1,0-.3,0-.4,0-.1,0-.2,0-.3-.2,0,0-.2-.2-.2-.3,0-.1,0-.2,0-.4,0-.1,0-.3,0-.4,0,0,.1-.2.2-.2,0,0,.2-.1.3-.1.1,0,.2,0,.3,0,.1,0,.2,0,.3,0,.1,0,.2,0,.3,0,0,0,.1,0,.2,0,0,0,0-.1,0-.2,0,0,0-.1,0-.2,0,0,0,0-.1-.1,0,0-.1,0-.2,0,0,0-.1,0-.2,0-.1,0-.3,0-.4,0,0,0-.1.2-.2.3h-.8ZM21.7,145.4s0,0-.1,0c0,0-.1,0-.2,0,0,0-.1,0-.2,0s-.1,0-.2,0c0,0-.1,0-.2,0,0,0-.1,0-.1,0,0,0,0,0-.1.1,0,0,0,.1,0,.2,0,0,0,.1,0,.2,0,0,0,0,.1.1,0,0,0,0,.2,0,0,0,.1,0,.2,0,.1,0,.2,0,.4,0,0,0,.1-.1.2-.2,0,0,0-.1,0-.2,0,0,0-.1,0-.2v-.3Z"/>
      </g>
      <g id="Group_171" data-name="Group 171">
        <path id="Path_205" data-name="Path 205" class="cls-8" d="M23.9,142.9v2.1l1-1h.9l-1.1,1,1.2,1.8h-.9l-.8-1.3-.3.3v1h-.8v-3.9h.8Z"/>
      </g>
      <g id="Group_172" data-name="Group 172">
        <path id="Path_206" data-name="Path 206" class="cls-8" d="M27,142.9v2.1l1-1h.9l-1.1,1,1.2,1.8h-.9l-.8-1.3-.3.3v1h-.8v-3.9h.8Z"/>
      </g>
      <g id="Group_173" data-name="Group 173">
        <path id="Path_207" data-name="Path 207" class="cls-8" d="M30.1,146.1c.3.2.6.2.9,0,0,0,.2-.1.2-.2h.7c0,.3-.3.5-.5.7-.2.1-.5.2-.8.2-.2,0-.4,0-.6-.1-.2,0-.3-.2-.5-.3-.1-.1-.2-.3-.3-.5,0-.2-.1-.4-.1-.6,0-.2,0-.4.1-.6.1-.4.4-.6.7-.8.2,0,.4-.1.6-.1.2,0,.4,0,.6.1.2,0,.3.2.4.4.1.2.2.3.2.5,0,.2,0,.4,0,.6h-2c0,.2,0,.4.2.5ZM31,144.6c-.1-.1-.3-.2-.4-.2-.1,0-.2,0-.3,0,0,0-.1,0-.2.2,0,0,0,.1-.1.2,0,0,0,.1,0,.2h1.3c0-.2,0-.3-.2-.4h0Z"/>
      </g>
      <g id="Group_174" data-name="Group 174">
        <path id="Path_208" data-name="Path 208" class="cls-8" d="M34,144v.5h-.6v1.4c0,.1,0,.3.2.3,0,0,0,0,.1,0,0,0,0,0,.1,0s0,0,.1,0v.6c0,0-.1,0-.2,0,0,0-.2,0-.2,0-.1,0-.2,0-.3,0,0,0-.2,0-.3,0,0,0-.1-.1-.2-.2,0-.1,0-.2,0-.3v-1.7h-.5v-.5h.5v-.8h.8v.8h.6Z"/>
      </g>
      <g id="Group_175" data-name="Group 175">
        <path id="Path_209" data-name="Path 209" class="cls-8" d="M34.1,147.1c0,0,.1,0,.2,0,0,0,0,0,0-.2v-2.9h.8v2.9c0,.1,0,.3,0,.4,0,.1,0,.2-.2.3,0,0-.2.1-.3.2-.2,0-.3,0-.5,0,0,0-.2,0-.2,0v-.6c0,0,.1,0,.2,0ZM34.4,143.5v-.6h.8v.6h-.8Z"/>
      </g>
      <g id="Group_176" data-name="Group 176">
        <path id="Path_210" data-name="Path 210" class="cls-8" d="M36.7,146.1c.3.2.6.2.9,0,0,0,.2-.1.2-.2h.7c0,.3-.3.5-.5.7-.2.1-.5.2-.8.2-.2,0-.4,0-.6-.1-.2,0-.3-.2-.5-.3-.1-.1-.2-.3-.3-.5,0-.2-.1-.4-.1-.6,0-.2,0-.4.1-.6.1-.4.4-.6.7-.8.2,0,.4-.1.6-.1.2,0,.4,0,.6.1.2,0,.3.2.4.4.1.2.2.3.2.5,0,.2,0,.4,0,.6h-2c0,.2,0,.4.2.5ZM37.5,144.6c-.1-.1-.3-.2-.4-.2-.1,0-.2,0-.3,0,0,0-.1,0-.2.2,0,0,0,.1-.1.2,0,0,0,.1,0,.2h1.3c0-.2,0-.3-.2-.4h0Z"/>
      </g>
      <g id="Group_177" data-name="Group 177">
        <path id="Path_211" data-name="Path 211" class="cls-8" d="M42.9,146.8l-.5-1.9h0l-.5,1.9h-.8l-.9-2.8h.8l.5,1.9h0l.5-1.9h.7l.5,1.9h0l.5-1.9h.8l-.9,2.8h-.8Z"/>
      </g>
      <g id="Group_178" data-name="Group 178">
        <path id="Path_212" data-name="Path 212" class="cls-8" d="M44.9,144.8c.1-.4.4-.6.7-.8.2,0,.4-.1.6-.1.2,0,.4,0,.6.1.2,0,.3.2.5.3.1.1.2.3.3.5,0,.2.1.4.1.6,0,.2,0,.4-.1.6,0,.2-.2.3-.3.5-.1.1-.3.2-.5.3-.2,0-.4.1-.6.1-.2,0-.4,0-.6-.1-.2,0-.3-.2-.5-.3-.1-.1-.2-.3-.3-.5,0-.2-.1-.4-.1-.6,0-.2,0-.4.1-.6ZM45.6,145.7c0,.1,0,.2.1.3,0,0,.1.2.2.2,0,0,.2,0,.3,0,.1,0,.2,0,.3,0,0,0,.2-.1.2-.2,0,0,0-.2.1-.3,0-.1,0-.2,0-.3,0-.1,0-.2,0-.3,0-.1,0-.2-.1-.3,0,0-.1-.2-.2-.2-.1,0-.2,0-.3,0-.2,0-.4,0-.5.3,0,0,0,.2-.1.3,0,.1,0,.2,0,.3,0,.1,0,.2,0,.3h0Z"/>
      </g>
      <g id="Group_179" data-name="Group 179">
        <path id="Path_213" data-name="Path 213" class="cls-8" d="M48.9,144v.5h0c0,0,0-.2.1-.2,0,0,.1-.1.2-.2,0,0,.2,0,.3-.1,0,0,.2,0,.3,0,0,0,.1,0,.2,0v.7s0,0-.1,0c0,0,0,0-.1,0-.1,0-.2,0-.4,0,0,0-.2.1-.2.2,0,0-.1.2-.1.3,0,.1,0,.2,0,.4v1.3h-.8v-2.8h.7Z"/>
      </g>
      <g id="Group_180" data-name="Group 180">
        <path id="Path_214" data-name="Path 214" class="cls-8" d="M52.2,146.4c0,.1-.2.3-.4.3-.2,0-.3.1-.5.1-.2,0-.4,0-.6-.1-.2,0-.3-.2-.4-.3-.1-.1-.2-.3-.2-.5,0-.2,0-.4,0-.6,0-.2,0-.4,0-.5,0-.2.1-.3.2-.5.2-.3.6-.5.9-.4.2,0,.3,0,.5.1.1,0,.3.2.4.3h0v-1.4h.8v3.9h-.7v-.4h0ZM52.2,145c0-.1,0-.2-.1-.3,0,0-.1-.1-.2-.2,0,0-.2,0-.3,0-.1,0-.2,0-.3,0,0,0-.2.1-.2.2,0,0,0,.2-.1.3,0,.1,0,.2,0,.3,0,.1,0,.2,0,.3,0,.1,0,.2.1.3,0,0,.1.2.2.2,0,0,.2,0,.3,0,.1,0,.2,0,.3,0,0,0,.2-.1.2-.2,0,0,0-.2.1-.3,0-.1,0-.2,0-.3,0-.1,0-.2,0-.3h0Z"/>
      </g>
      <g id="Group_181" data-name="Group 181">
        <path id="Path_215" data-name="Path 215" class="cls-8" d="M55.1,144v.5h-.6v1.4c0,.1,0,.3.2.3,0,0,0,0,.1,0,0,0,0,0,.1,0s0,0,.1,0v.6c0,0-.1,0-.2,0,0,0-.2,0-.2,0-.1,0-.2,0-.3,0,0,0-.2,0-.3,0,0,0-.1-.1-.2-.2,0-.1,0-.2,0-.3v-1.7h-.5v-.5h.5v-.8h.8v.8h.6Z"/>
      </g>
      <g id="Group_182" data-name="Group 182">
        <path id="Path_216" data-name="Path 216" class="cls-8" d="M57.7,142.9v1.4h0c0-.1.2-.3.4-.3.2,0,.3-.1.5-.1.3,0,.6.1.8.4.1.1.2.3.3.5.1.4.1.9,0,1.3,0,.2-.2.3-.3.5-.2.2-.5.4-.8.4-.2,0-.4,0-.6,0-.2,0-.3-.2-.4-.3h0v.4h-.7v-3.9h.8ZM59,145c0-.1,0-.2-.1-.3,0,0-.1-.1-.2-.2-.2,0-.4,0-.6,0,0,0-.2.1-.2.2,0,0,0,.2-.1.3,0,.1,0,.2,0,.3,0,.1,0,.2,0,.3,0,.1,0,.2.1.3,0,0,.1.1.2.2.2,0,.4,0,.6,0,0,0,.2-.1.2-.2,0,0,0-.2.1-.3,0-.1,0-.2,0-.3,0-.1,0-.2,0-.3h0Z"/>
      </g>
      <g id="Group_183" data-name="Group 183">
        <path id="Path_217" data-name="Path 217" class="cls-8" d="M61.1,146.1c.3.2.6.2.9,0,0,0,.2-.1.2-.2h.7c0,.3-.3.5-.5.7-.2.1-.5.2-.8.2-.2,0-.4,0-.6-.1-.2,0-.3-.2-.5-.3-.1-.1-.2-.3-.3-.5,0-.2-.1-.4-.1-.6,0-.2,0-.4.1-.6.1-.4.4-.6.7-.8.2,0,.4-.1.6-.1.2,0,.4,0,.6.1.2,0,.3.2.4.4.1.2.2.3.2.5,0,.2,0,.4,0,.6h-2c0,.2,0,.4.2.5ZM62,144.6c-.1-.1-.3-.2-.4-.2-.1,0-.2,0-.3,0,0,0-.1,0-.2.2,0,0,0,.1-.1.2,0,0,0,.1,0,.2h1.3c0-.2,0-.3-.2-.4h0Z"/>
      </g>
      <g id="Group_184" data-name="Group 184">
        <path id="Path_218" data-name="Path 218" class="cls-8" d="M64.7,144.6h-1.4v-.6h2.4v.6l-1.5,1.6h1.6v.6h-2.6v-.6l1.5-1.6Z"/>
      </g>
      <g id="Group_185" data-name="Group 185">
        <path id="Path_219" data-name="Path 219" class="cls-8" d="M66.2,144.8c0-.2.2-.3.3-.5.1-.1.3-.2.5-.3.2,0,.4-.1.6-.1.2,0,.4,0,.6.1.4.1.6.4.8.8,0,.2.1.4.1.6,0,.2,0,.4-.1.6,0,.2-.2.3-.3.5-.1.1-.3.2-.5.3-.2,0-.4.1-.6.1-.2,0-.4,0-.6-.1-.2,0-.3-.2-.5-.3-.1-.1-.2-.3-.3-.5,0-.2-.1-.4-.1-.6,0-.2,0-.4.1-.6ZM66.9,145.7c0,.1,0,.2.1.3,0,0,.1.2.2.2,0,0,.2,0,.3,0,.1,0,.2,0,.3,0,0,0,.2-.1.2-.2,0,0,0-.2.1-.3,0-.1,0-.2,0-.3,0-.1,0-.2,0-.3,0-.1,0-.2-.1-.3,0,0-.1-.2-.2-.2-.1,0-.2,0-.3,0-.2,0-.4,0-.5.3,0,0,0,.2-.1.3,0,.1,0,.2,0,.3,0,.1,0,.2,0,.3h0Z"/>
      </g>
      <g id="Group_186" data-name="Group 186">
        <path id="Path_220" data-name="Path 220" class="cls-8" d="M70.3,144v.5h0c0,0,0-.2.1-.2,0,0,.1-.1.2-.2,0,0,.2,0,.3-.1,0,0,.2,0,.3,0,0,0,.1,0,.2,0v.7s0,0-.1,0c0,0,0,0-.1,0-.1,0-.2,0-.4,0,0,0-.2.1-.2.2,0,0-.1.2-.1.3,0,.1,0,.2,0,.4v1.3h-.8v-2.8h.7Z"/>
      </g>
      <g id="Group_187" data-name="Group 187">
        <path id="Path_221" data-name="Path 221" class="cls-8" d="M74.1,147c0,.1-.1.3-.2.4-.1.1-.3.2-.4.3-.2,0-.5.1-.8.1-.1,0-.3,0-.4,0-.1,0-.3,0-.4-.2-.1,0-.2-.2-.3-.3,0-.1-.1-.3-.1-.4h.8c0,.1.1.2.2.3.1,0,.2,0,.4,0,.2,0,.4,0,.5-.2.1-.1.2-.3.1-.5v-.4h0c0,.1-.2.3-.4.3-.2,0-.3.1-.5.1-.2,0-.4,0-.5-.1-.1,0-.3-.2-.4-.3-.1-.1-.2-.3-.2-.5,0-.2,0-.4,0-.5,0-.2,0-.4,0-.5,0-.2.1-.3.2-.4.1-.1.2-.2.4-.3.2,0,.3-.1.5-.1.2,0,.3,0,.5.1.1,0,.3.2.4.3h0v-.4h.7v2.6c0,.1,0,.3,0,.4ZM73.1,146.1c0,0,.2-.1.2-.2,0,0,0-.2.1-.2,0,0,0-.2,0-.3,0-.1,0-.2,0-.3,0,0,0-.2-.1-.3,0,0-.1-.1-.2-.2,0,0-.2,0-.3,0,0,0-.2,0-.3,0,0,0-.1.1-.2.2,0,0,0,.2-.1.3,0,0,0,.2,0,.3,0,.1,0,.2,0,.3,0,0,0,.2.1.3,0,0,.1.1.2.2,0,0,.2,0,.3,0,0,0,.2,0,.3,0h0Z"/>
      </g>
      <g id="Group_188" data-name="Group 188">
        <path id="Path_222" data-name="Path 222" class="cls-8" d="M76.8,146.4c0,.1-.2.3-.4.3-.2,0-.3.1-.5.1-.2,0-.4,0-.6-.1-.2,0-.3-.2-.4-.3-.1-.1-.2-.3-.2-.5,0-.2,0-.4,0-.6,0-.2,0-.4,0-.5,0-.2.1-.3.2-.5.2-.3.6-.5.9-.4.2,0,.3,0,.5.1.1,0,.3.2.4.3h0v-1.4h.8v3.9h-.7v-.4h0ZM76.8,145c0-.1,0-.2-.1-.3,0,0-.1-.1-.2-.2,0,0-.2,0-.3,0-.1,0-.2,0-.3,0,0,0-.2.1-.2.2,0,0,0,.2-.1.3,0,.1,0,.2,0,.3,0,.1,0,.2,0,.3,0,.1,0,.2.1.3,0,0,.1.2.2.2,0,0,.2,0,.3,0,.1,0,.2,0,.3,0,0,0,.2-.1.2-.2,0,0,0-.2.1-.3,0-.1,0-.2,0-.3,0-.1,0-.2,0-.3Z"/>
      </g>
      <g id="Group_189" data-name="Group 189">
        <path id="Path_223" data-name="Path 223" class="cls-8" d="M81.6,146.4c0,.1-.2.3-.4.3-.2,0-.3.1-.5.1-.2,0-.4,0-.6-.1-.2,0-.3-.2-.4-.3-.1-.1-.2-.3-.2-.5,0-.2,0-.4,0-.6,0-.2,0-.4,0-.5,0-.2.1-.3.2-.5.2-.3.6-.5.9-.4.2,0,.3,0,.5.1.1,0,.3.2.4.3h0v-1.4h.8v3.9h-.7v-.4h0ZM81.6,145c0-.1,0-.2-.1-.3,0,0-.1-.1-.2-.2,0,0-.2,0-.3,0-.1,0-.2,0-.3,0,0,0-.2.1-.2.2,0,0,0,.2-.1.3,0,.1,0,.2,0,.3,0,.1,0,.2,0,.3,0,.1,0,.2.1.3,0,0,.1.2.2.2,0,0,.2,0,.3,0,.1,0,.2,0,.3,0,0,0,.2-.1.2-.2,0,0,0-.2.1-.3,0-.1,0-.2,0-.3,0-.1,0-.2,0-.3h0Z"/>
      </g>
      <g id="Group_190" data-name="Group 190">
        <path id="Path_224" data-name="Path 224" class="cls-8" d="M83,144.8c.1-.4.4-.6.7-.8.4-.1.8-.1,1.2,0,.4.1.6.4.8.8,0,.2.1.4.1.6,0,.2,0,.4-.1.6,0,.2-.2.3-.3.5-.1.1-.3.2-.5.3-.4.1-.8.1-1.2,0-.2,0-.3-.2-.5-.3-.1-.1-.2-.3-.3-.5,0-.2-.1-.4-.1-.6,0-.2,0-.4.1-.6ZM83.7,145.7c0,.1,0,.2.1.3,0,0,.1.2.2.2,0,0,.2,0,.3,0,.1,0,.2,0,.3,0,0,0,.2-.1.2-.2,0,0,0-.2.1-.3,0-.1,0-.2,0-.3s0-.2,0-.3c0-.1,0-.2-.1-.3,0,0-.1-.2-.2-.2-.1,0-.2,0-.3,0-.2,0-.4,0-.5.3,0,0,0,.2-.1.3,0,.1,0,.2,0,.3,0,.1,0,.2,0,.3h0Z"/>
      </g>
      <g id="Group_191" data-name="Group 191">
        <path id="Path_225" data-name="Path 225" class="cls-8" d="M86.3,144.8c.1-.4.4-.6.7-.8.2,0,.4-.1.6-.1.2,0,.4,0,.6.1.4.1.6.4.8.8,0,.2.1.4.1.6,0,.2,0,.4-.1.6,0,.2-.2.3-.3.5-.1.1-.3.2-.5.3-.2,0-.4.1-.6.1-.2,0-.4,0-.6-.1-.2,0-.3-.2-.5-.3-.1-.1-.2-.3-.3-.5,0-.2-.1-.4-.1-.6,0-.2,0-.4.1-.6ZM87,145.7c0,.1,0,.2.1.3,0,0,.1.2.2.2,0,0,.2,0,.3,0,.1,0,.2,0,.3,0,0,0,.2-.1.2-.2,0,0,0-.2.1-.3,0-.1,0-.2,0-.3,0-.1,0-.2,0-.3,0-.1,0-.2-.1-.3,0,0-.1-.2-.2-.2-.1,0-.2,0-.3,0-.2,0-.4,0-.5.3,0,0,0,.2-.1.3,0,.1,0,.2,0,.3,0,.1,0,.2,0,.3h0Z"/>
      </g>
      <g id="Group_192" data-name="Group 192">
        <path id="Path_226" data-name="Path 226" class="cls-8" d="M90.3,144v.5h0c0,0,0-.2.1-.2,0,0,.1-.1.2-.2,0,0,.2,0,.3-.1,0,0,.2,0,.3,0,0,0,.1,0,.2,0v.7s0,0-.1,0c0,0,0,0-.1,0-.1,0-.2,0-.4,0,0,0-.2.1-.2.2,0,0-.1.2-.1.3,0,.1,0,.2,0,.4v1.3h-.8v-2.8h.7Z"/>
      </g>
      <g id="Group_193" data-name="Group 193">
        <path id="Path_227" data-name="Path 227" class="cls-8" d="M41.7,150.5c0,0-.1-.2-.2-.2-.2-.1-.4-.2-.6-.2-.2,0-.3,0-.5.1-.1,0-.2.2-.3.3,0,.1-.1.3-.2.4,0,.2,0,.3,0,.5,0,.2,0,.3,0,.5,0,.1,0,.3.2.4,0,.1.2.2.3.3.2,0,.3.1.5.1.2,0,.5,0,.6-.2.2-.2.2-.4.3-.6h.8c0,.2,0,.4-.2.7,0,.2-.2.4-.4.5-.2.1-.3.2-.5.3-.2,0-.4.1-.7.1-.3,0-.5,0-.8-.2-.2,0-.4-.2-.6-.4-.2-.2-.3-.4-.4-.6,0-.3-.1-.5-.1-.8,0-.3,0-.5.1-.8,0-.2.2-.5.4-.6.2-.2.4-.3.6-.4.4-.2.9-.2,1.4,0,.2,0,.4.2.5.3.2.1.3.3.4.4.1.2.2.4.2.6h-.8c0,0,0-.2,0-.3Z"/>
      </g>
      <g id="Group_194" data-name="Group 194">
        <path id="Path_228" data-name="Path 228" class="cls-8" d="M43.1,151.3c.1-.4.4-.6.7-.8.2,0,.4-.1.6-.1.2,0,.4,0,.6.1.4.1.6.4.8.8,0,.2.1.4.1.6,0,.2,0,.4-.1.6,0,.2-.2.3-.3.5-.1.1-.3.2-.5.3-.2,0-.4.1-.6.1-.2,0-.4,0-.6-.1-.2,0-.3-.2-.5-.3-.1-.1-.2-.3-.3-.5,0-.2-.1-.4-.1-.6,0-.2,0-.4.1-.6ZM43.8,152.2c0,.1,0,.2.1.3,0,0,.1.2.2.2,0,0,.2,0,.3,0,.1,0,.2,0,.3,0,0,0,.2-.1.2-.2,0,0,0-.2.1-.3,0-.1,0-.2,0-.3,0-.1,0-.2,0-.3,0-.1,0-.2-.1-.3,0,0-.1-.2-.2-.2-.1,0-.2,0-.3,0-.2,0-.4,0-.5.3,0,0,0,.2-.1.3,0,.1,0,.2,0,.3,0,.1,0,.2,0,.3h0Z"/>
      </g>
      <g id="Group_195" data-name="Group 195">
        <path id="Path_229" data-name="Path 229" class="cls-8" d="M47.2,150.5v.4h0c0-.1.2-.3.4-.3.1,0,.3-.1.5-.1.2,0,.4,0,.6.1.2,0,.3.2.4.3.1.1.2.3.2.5,0,.2,0,.4,0,.6,0,.2,0,.4,0,.5,0,.2-.1.3-.2.5-.1.1-.2.2-.4.3-.2,0-.4.1-.5.1-.2,0-.3,0-.5-.1-.1,0-.3-.2-.4-.3h0v1.3h-.8v-3.8h.7ZM48.2,152.7c0,0,.2-.1.2-.2,0,0,0-.2.1-.3,0-.1,0-.2,0-.3s0-.2,0-.3c0-.1,0-.2-.1-.3,0,0-.1-.2-.2-.2,0,0-.2,0-.3,0-.1,0-.2,0-.3,0,0,0-.2.1-.2.2,0,0,0,.2-.1.3,0,.1,0,.2,0,.3,0,.1,0,.2,0,.3,0,.1,0,.2.1.3.2.3.6.4.8.2h0Z"/>
      </g>
      <g id="Group_196" data-name="Group 196">
        <path id="Path_230" data-name="Path 230" class="cls-8" d="M51.3,150.5v.5h-.6v1.4c0,.1,0,.3.2.3,0,0,0,0,.1,0,0,0,0,0,.1,0,0,0,0,0,.1,0v.6c0,0-.1,0-.2,0,0,0-.2,0-.2,0-.1,0-.2,0-.3,0,0,0-.2,0-.3,0,0,0-.1-.1-.2-.2,0-.1,0-.2,0-.3v-1.7h-.5v-.5h.5v-.8h.8v.8h.6Z"/>
      </g>
      <g id="Group_197" data-name="Group 197">
        <path id="Path_231" data-name="Path 231" class="cls-8" d="M52.5,152.6c.3.2.6.2.9,0,0,0,.2-.1.2-.2h.7c0,.3-.3.5-.5.7-.2.1-.5.2-.8.2-.2,0-.4,0-.6-.1-.2,0-.3-.2-.5-.3-.1-.1-.2-.3-.3-.5,0-.2-.1-.4-.1-.6,0-.2,0-.4.1-.6.1-.4.4-.6.7-.8.2,0,.4-.1.6-.1.2,0,.4,0,.6.1.2,0,.3.2.4.4.1.2.2.3.2.5,0,.2,0,.4,0,.6h-2c0,.2,0,.4.2.5ZM53.4,151.1c-.1-.1-.3-.2-.4-.2-.1,0-.2,0-.3,0,0,0-.1,0-.2.2,0,0,0,.1-.1.2,0,0,0,.1,0,.2h1.3c0-.2,0-.3-.2-.4Z"/>
      </g>
      <g id="Group_198" data-name="Group 198">
        <path id="Path_232" data-name="Path 232" class="cls-8" d="M55.5,150.5v.5h0c0,0,0-.2.1-.2,0,0,.1-.1.2-.2,0,0,.2,0,.3-.1,0,0,.2,0,.3,0,0,0,.1,0,.2,0v.7s0,0-.1,0c0,0,0,0-.1,0-.1,0-.2,0-.4,0,0,0-.2.1-.2.2,0,0-.1.2-.1.3,0,.1,0,.2,0,.4v1.3h-.8v-2.8h.7Z"/>
      </g>
      <g id="Group_199" data-name="Group 199">
        <path id="Path_233" data-name="Path 233" class="cls-8" d="M58.2,149.4l.9,2.7h0l.9-2.7h1.2v3.9h-.8v-2.7h0l-1,2.7h-.7l-1-2.7h0v2.7h-.8v-3.9h1.2Z"/>
      </g>
      <g id="Group_200" data-name="Group 200">
        <path id="Path_234" data-name="Path 234" class="cls-8" d="M61.8,151.4c0-.2,0-.3.1-.5,0-.1.2-.2.3-.3.1,0,.3-.1.4-.2.2,0,.3,0,.5,0,.1,0,.3,0,.4,0,.1,0,.3,0,.4.1.1,0,.2.1.3.2,0,.1.1.3.1.4v1.5c0,.1,0,.2,0,.4,0,0,0,.2,0,.3h-.8s0,0,0-.1c0,0,0,0,0-.1-.1.1-.3.2-.4.3-.2,0-.3,0-.5,0-.1,0-.3,0-.4,0-.1,0-.2,0-.3-.2,0,0-.2-.2-.2-.3,0-.1,0-.2,0-.4,0-.1,0-.3,0-.4,0,0,.1-.2.2-.2,0,0,.2-.1.3-.1.1,0,.2,0,.3,0,.1,0,.2,0,.3,0,.1,0,.2,0,.3,0,0,0,.1,0,.2,0,0,0,0-.1,0-.2,0,0,0-.1,0-.2,0,0,0,0-.1-.1,0,0-.1,0-.2,0,0,0-.1,0-.2,0-.1,0-.3,0-.4,0,0,0-.2.2-.2.3h-.8ZM63.6,151.9s0,0-.1,0c0,0-.1,0-.2,0,0,0-.1,0-.2,0s-.1,0-.2,0c0,0-.1,0-.2,0,0,0-.1,0-.1,0,0,0,0,0-.1.1,0,0,0,.1,0,.2,0,0,0,.1,0,.2,0,0,0,0,.1.1,0,0,0,0,.2,0,0,0,.1,0,.2,0,.1,0,.2,0,.4,0,0,0,.1-.1.2-.2,0,0,0-.1,0-.2,0,0,0-.1,0-.2v-.3Z"/>
      </g>
      <g id="Group_201" data-name="Group 201">
        <path id="Path_235" data-name="Path 235" class="cls-8" d="M65,150.1v-.6h.8v.6h-.8ZM65.7,150.5v2.8h-.8v-2.8h.8Z"/>
      </g>
      <g id="Group_202" data-name="Group 202">
        <path id="Path_236" data-name="Path 236" class="cls-8" d="M67.1,149.4v3.9h-.8v-3.9h.8Z"/>
      </g>
      <g id="Group_203" data-name="Group 203">
        <path id="Path_237" data-name="Path 237" class="cls-8" d="M68.6,152.5v.8h-.9v-.8h.9Z"/>
      </g>
    </g>
    <g id="Group_215" data-name="Group 215">
      <g id="Group_205" data-name="Group 205">
        <path id="Path_238" data-name="Path 238" class="cls-8" d="M45.7,33l-1.1-4.3h0l-1,4.3h-1.4l-1.7-6.3h1.4l1,4.3h0l1.1-4.3h1.3l1.1,4.3h0l1-4.3h1.4l-1.7,6.3h-1.4Z"/>
      </g>
      <g id="Group_206" data-name="Group 206">
        <path id="Path_239" data-name="Path 239" class="cls-8" d="M54.1,26.7v1.2h-3.3v1.3h3v1.1h-3v1.5h3.4v1.2h-4.8v-6.3h4.7Z"/>
      </g>
      <g id="Group_207" data-name="Group 207">
        <path id="Path_240" data-name="Path 240" class="cls-8" d="M58,26.7c.3,0,.5,0,.8,0,.2,0,.4.1.6.3.2.1.3.3.4.5.1.2.2.5.1.7,0,.3,0,.6-.2.8-.2.2-.4.4-.6.5.3,0,.7.3.9.6.3.6.4,1.2.1,1.8-.1.2-.3.4-.5.6-.2.1-.5.3-.7.3-.3,0-.5.1-.8.1h-3v-6.3h3ZM57.9,29.3c.2,0,.4,0,.6-.2.2-.1.3-.4.2-.6,0-.1,0-.2,0-.4,0,0-.1-.2-.2-.2,0,0-.2,0-.3-.1-.1,0-.2,0-.4,0h-1.3v1.5h1.4ZM58,31.9c.1,0,.3,0,.4,0,.1,0,.2,0,.3-.1,0,0,.2-.1.2-.3,0-.1,0-.3,0-.4,0-.3,0-.5-.3-.7-.2-.1-.5-.2-.7-.2h-1.5v1.7h1.5Z"/>
      </g>
      <g id="Group_208" data-name="Group 208">
        <path id="Path_241" data-name="Path 241" class="cls-8" d="M62.3,31.4c0,.1.2.3.3.4.1,0,.3.2.4.2.2,0,.3,0,.5,0,.1,0,.3,0,.4,0,.1,0,.3,0,.4-.1.1,0,.2-.1.3-.2,0-.1.1-.3.1-.4,0-.2,0-.3-.2-.4-.1-.1-.3-.2-.4-.3-.2,0-.4-.1-.6-.2-.2,0-.4-.1-.7-.2-.2,0-.5-.1-.7-.2-.2,0-.4-.2-.6-.3-.2-.1-.3-.3-.4-.5-.1-.2-.2-.5-.2-.7,0-.3,0-.6.2-.8.1-.2.3-.4.5-.6.2-.2.5-.3.8-.4.3,0,.6-.1.8-.1.3,0,.6,0,.9.1.3,0,.6.2.8.4.2.2.4.4.6.6.1.3.2.6.2.9h-1.3c0-.2,0-.3-.1-.5,0-.1-.2-.2-.3-.3-.1,0-.2-.1-.4-.1-.2,0-.3,0-.5,0-.1,0-.2,0-.3,0-.1,0-.2,0-.3.1,0,0-.2.1-.2.2,0,0,0,.2,0,.3,0,.1,0,.2,0,.3,0,0,.2.2.3.2.2,0,.4.1.6.2.2,0,.6.1,1,.2.1,0,.3,0,.5.1.2,0,.4.2.6.3.2.1.4.3.5.5.2.3.2.6.2.9,0,.3,0,.5-.2.8-.1.2-.3.5-.5.6-.2.2-.5.3-.8.4-.4.1-.7.2-1.1.1-.3,0-.7,0-1-.1-.3,0-.6-.2-.9-.4-.2-.2-.5-.4-.6-.7-.2-.3-.2-.7-.2-1h1.3c0,.2,0,.4.1.5Z"/>
      </g>
      <g id="Group_209" data-name="Group 209">
        <path id="Path_242" data-name="Path 242" class="cls-8" d="M68.4,26.7v6.3h-1.4v-6.3h1.4Z"/>
      </g>
      <g id="Group_210" data-name="Group 210">
        <path id="Path_243" data-name="Path 243" class="cls-8" d="M69.1,27.9v-1.2h5.1v1.2h-1.9v5.1h-1.4v-5.1h-1.9Z"/>
      </g>
      <g id="Group_211" data-name="Group 211">
        <path id="Path_244" data-name="Path 244" class="cls-8" d="M79.6,26.7v1.2h-3.3v1.3h3v1.1h-3v1.5h3.4v1.2h-4.8v-6.3h4.7Z"/>
      </g>
      <g id="Group_212" data-name="Group 212">
        <path id="Path_245" data-name="Path 245" class="cls-8" d="M82,31.6v1.4h-1.4v-1.4h1.4Z"/>
      </g>
      <g id="Group_213" data-name="Group 213">
        <path id="Path_246" data-name="Path 246" class="cls-8" d="M84.5,26.7l2.6,4.2h0v-4.2h1.3v6.3h-1.4l-2.6-4.2h0v4.2h-1.3v-6.3h1.4Z"/>
      </g>
      <g id="Group_214" data-name="Group 214">
        <path id="Path_247" data-name="Path 247" class="cls-8" d="M91,26.7v5.1h3.1v1.2h-4.4v-6.3h1.4Z"/>
      </g>
    </g>
    <g id="Group_216" data-name="Group 216">
      <ellipse id="Ellipse_28" data-name="Ellipse 28" class="cls-1" cx="21.6" cy="30.2" rx="5.7" ry="3.9"/>
    </g>
    <g id="Group_217" data-name="Group 217">
      <ellipse id="Ellipse_29" data-name="Ellipse 29" class="cls-6" cx="30.9" cy="31.9" rx="5.7" ry="3.9"/>
    </g>
    <g id="Group_218" data-name="Group 218">
      <ellipse id="Ellipse_30" data-name="Ellipse 30" class="cls-3" cx="27.3" cy="26.3" rx="5.7" ry="3.9"/>
    </g>
  </g>
</svg>