<?xml version="1.0" encoding="UTF-8"?>
<svg id="Layer_1" data-name="Layer 1" xmlns="http://www.w3.org/2000/svg" xmlns:xlink="http://www.w3.org/1999/xlink" viewBox="0 0 46 46">
  <defs>
    <style>
      .cls-1 {
        fill: url(#linear-gradient);
        stroke-width: 0px;
      }

      .cls-2 {
        fill: url(#linear-gradient-2);
        stroke: #fff;
        stroke-linecap: round;
        stroke-linejoin: round;
        stroke-width: 2px;
      }
    </style>
    <linearGradient id="linear-gradient" x1="4.98" y1="40.41" x2="5.98" y2="40.41" gradientTransform="translate(-228.99 1882) scale(46 -46)" gradientUnits="userSpaceOnUse">
      <stop offset="0" stop-color="#037dc2"/>
      <stop offset="1" stop-color="#14adcd"/>
    </linearGradient>
    <linearGradient id="linear-gradient-2" x1="6.99" y1="26.59" x2="7.99" y2="26.59" gradientTransform="translate(-236.43 474.4) scale(34.66 -16.98)" gradientUnits="userSpaceOnUse">
      <stop offset="0" stop-color="#f8951d"/>
      <stop offset="1" stop-color="#d14d27"/>
    </linearGradient>
  </defs>
  <g id="Group_230" data-name="Group 230">
    <rect id="Rectangle_9" data-name="Rectangle 9" class="cls-1" width="46" height="46" rx="7" ry="7"/>
    <path id="Path_22" data-name="Path 22" class="cls-2" d="M40.22,22.63c.1.07.14.2.07.31-.02.03-.04.05-.07.07l-3.58,2.28-2.22,1.41-7.2,4.58c-.1.07-.24.04-.31-.07-.02-.04-.04-.08-.04-.12v-4.17c0-.12-.1-.22-.22-.22H5.89c-.12,0-.22-.1-.22-.22h0v-7.3c0-.12.1-.22.22-.22h20.77c.12,0,.22-.1.22-.22v-4.17c0-.12.1-.22.22-.22.04,0,.09.01.12.04l7.2,4.58,2.21,1.41,3.58,2.27Z"/>
  </g>
</svg>